<svg width="20" height="20" viewBox="0 0 20 20" fill="none" xmlns="http://www.w3.org/2000/svg">
<path fill-rule="evenodd" clip-rule="evenodd" d="M9.15161 0.75149C9.37665 0.526525 9.68182 0.400146 10 0.400146C10.3182 0.400146 10.6234 0.526525 10.8484 0.75149L19.2484 9.15149C19.4162 9.31931 19.5304 9.53311 19.5767 9.76585C19.623 9.9986 19.5992 10.2398 19.5084 10.4591C19.4176 10.6783 19.2639 10.8657 19.0666 10.9976C18.8693 11.1294 18.6373 11.1998 18.4 11.1999H17.2V18.3999C17.2 18.7181 17.0736 19.0234 16.8485 19.2484C16.6235 19.4735 16.3183 19.5999 16 19.5999H13.6C13.2818 19.5999 12.9765 19.4735 12.7515 19.2484C12.5264 19.0234 12.4 18.7181 12.4 18.3999V14.7999C12.4 14.4816 12.2736 14.1764 12.0485 13.9514C11.8235 13.7263 11.5183 13.5999 11.2 13.5999H8.80001C8.48175 13.5999 8.17653 13.7263 7.95148 13.9514C7.72644 14.1764 7.60001 14.4816 7.60001 14.7999V18.3999C7.60001 18.7181 7.47358 19.0234 7.24854 19.2484C7.0235 19.4735 6.71827 19.5999 6.40001 19.5999H4.00001C3.68175 19.5999 3.37653 19.4735 3.15148 19.2484C2.92644 19.0234 2.80001 18.7181 2.80001 18.3999V11.1999H1.60001C1.36271 11.1998 1.13075 11.1294 0.933463 10.9976C0.736171 10.8657 0.582403 10.6783 0.491599 10.4591C0.400795 10.2398 0.377032 9.9986 0.423313 9.76585C0.469594 9.53311 0.583841 9.31931 0.751613 9.15149L9.15161 0.75149Z" fill="#1D45D6"/>
</svg>
