<svg width="25" height="24" viewBox="0 0 25 24" fill="none" xmlns="http://www.w3.org/2000/svg">
<g clip-path="url(#clip0_1707_531)">
<path d="M11.9212 0C10.1811 0 8.76553 1.41567 8.76553 3.15571C8.76553 4.89575 10.1811 6.31146 11.9212 6.31146C13.6613 6.31146 15.077 4.89579 15.077 3.15575C15.077 1.41571 13.6613 0 11.9212 0Z" fill="#001C82"/>
<path d="M23.0741 10.5367V11.6003C23.0741 12.4061 22.566 13.095 21.8537 13.3647C21.4375 9.66042 18.2865 6.77138 14.4729 6.77138H9.70228C9.58392 6.77138 9.46504 6.77424 9.34603 6.77991C8.79319 5.63997 7.62319 4.88477 6.32377 4.88477H5.61086V7.99932C4.43158 8.77922 3.49511 9.88303 2.91912 11.1706H0.5V17.2281H2.91832C3.352 18.1967 3.99433 19.07 4.79556 19.7752C5.58545 20.4705 6.51741 20.991 7.51739 21.2991V23.999H11.6261V21.6273H12.5491V23.999H16.6578V21.2998C18.0572 20.8682 19.3156 20.0209 20.2454 18.8742C21.1781 17.7239 21.7446 16.3114 21.8729 14.8406C23.3715 14.5241 24.5 13.1917 24.5 11.6003V10.5366H23.0741V10.5367ZM5.85718 12.473C5.43864 12.473 5.09814 12.1325 5.09814 11.714C5.09814 11.2954 5.43868 10.9549 5.85718 10.9549C6.27573 10.9549 6.61623 11.2955 6.61623 11.714C6.61627 12.1325 6.27573 12.473 5.85718 12.473ZM14.5439 10.216H9.29859V8.79024H14.5439V10.216Z" fill="#001C82"/>
</g>
<defs>
<clipPath id="clip0_1707_531">
<rect width="24" height="24" fill="white" transform="translate(0.5)"/>
</clipPath>
</defs>
</svg>
