<svg width="73" height="78" viewBox="0 0 73 78" fill="none" xmlns="http://www.w3.org/2000/svg">
<path d="M0.402954 56.2492L34.4622 75.9078V69.4164L0.402954 49.7578V56.2492Z" fill="#869BB0"/>
<path d="M34.4622 30.0991L0.402954 49.7577L34.4622 69.4163L68.5215 49.7577L34.4622 30.0991Z" fill="#E6E6E6"/>
<path d="M68.5215 56.2492L34.4622 75.9078V69.4164L68.5215 49.7578V56.2492Z" fill="#BCCCDD"/>
<path d="M34.4622 69.4164L35.7828 70.1812L69.7447 50.5246L68.4221 49.7578L34.4622 69.4164Z" fill="#E6E6E6"/>
<path d="M69.7487 52.1536L69.7447 50.5247L35.7828 70.1812L35.7889 71.8102L69.7487 52.1536Z" fill="#BCCCDD"/>
<path d="M34.4622 72.0535V73.5769L71.0714 52.3969L69.7488 51.6301L34.4622 72.0535Z" fill="#E6E6E6"/>
<path d="M71.0754 54.0259L71.0714 52.397L37.1095 72.0536L37.1136 73.6845L71.0754 54.0259Z" fill="#BCCCDD"/>
<path d="M34.4622 74.6825V76.2465L72.396 54.2692L71.0754 53.5024L34.4622 74.6825Z" fill="#E6E6E6"/>
<path d="M72.4001 55.8982L72.396 54.2693L34.4622 76.2465L34.4663 77.8754L72.4001 55.8982Z" fill="#BCCCDD"/>
<path d="M35.7828 70.1813L34.4622 70.9663L24.076 64.9558L25.3987 64.189L35.7828 70.1813Z" fill="#E6E6E6"/>
<path d="M24.072 66.5847L24.0761 64.9558L34.4622 70.9664V72.5994L24.072 66.5847Z" fill="#84939C"/>
<path d="M34.4622 72.0536V73.577L22.7514 66.8281L24.072 66.0613L34.4622 72.0536Z" fill="#A8BBC6"/>
<path d="M22.7454 68.457L22.7514 66.8281L34.4622 73.5771V74.6826L22.7454 68.457Z" fill="#84939C"/>
<path d="M34.4622 74.6826V76.2466L21.4247 68.7004L22.7453 67.9336L34.4622 74.6826Z" fill="#A8BBC6"/>
<path d="M21.4207 70.3294L21.4248 68.7004L34.4622 76.2466L34.4582 77.8755L21.4207 70.3294Z" fill="#84939C"/>
<path d="M32.0706 31.6632L58.6668 16.4451V50.0864L32.0706 65.3066L5.4743 50.0864V16.4451L32.0706 31.6632Z" fill="#BD382C"/>
<path d="M58.6668 16.4451L32.0706 31.6632V65.3066L58.6668 50.0864V16.4451Z" fill="#BD382C"/>
<path d="M60.5756 16.2361L3.56543 18.0821L32.4945 34.1927L60.5756 18.1226V16.2361Z" fill="#BCCCDD"/>
<path d="M3.56543 16.1956V18.0821L32.4945 34.1928V32.3042L3.56543 16.1956Z" fill="#869BB0"/>
<path d="M31.6466 0.125488L3.56543 16.1956L32.4945 32.3043L60.5756 16.2362L31.6466 0.125488Z" fill="#E7E3E3"/>
<path d="M6.11127 16.1997L31.6446 1.59009L58.0278 16.2301L32.4965 30.8417L6.11127 16.1997Z" fill="#8E8E8E"/>
<path d="M31.6446 3.49489L56.3725 17.1774L58.0278 16.2301L31.6446 1.59009L6.11127 16.1997L7.76859 17.1571L31.6446 3.49489Z" fill="#BCCCDD"/>
<path d="M31.6446 1.59009V3.49489L56.3726 17.1774L58.0278 16.2301L31.6446 1.59009Z" fill="#869BB0"/>
<g opacity="0.1">
<path d="M32.0706 65.3066L5.4743 50.0864V19.1045L32.0706 33.8885V65.3066Z" fill="black"/>
</g>
<path d="M44.9133 58.5617L45.2906 58.3568V57.9998L49.3598 55.6446V55.9915L49.7371 55.7724V47.072L44.9133 49.6158V58.5617Z" fill="#8C6239"/>
<path d="M49.3598 55.6447V47.7942L45.2906 49.9424V57.9998L49.3598 55.6447Z" fill="#8C6239"/>
<path d="M44.5989 49.5549L44.9133 49.6158V58.5617L44.5989 58.3913V49.5549Z" fill="#0C0F14"/>
<path d="M49.1407 47.9098L49.3598 47.7942V55.9915L49.1407 55.7724V47.9098Z" fill="#0C0F14"/>
<path d="M49.7372 47.0721L44.9133 49.6301L44.5989 49.555L49.4471 47.0112L49.7372 47.0721Z" fill="#0C0F14"/>
<path d="M47.3779 49.7883L48.8344 48.9282V54.3465L47.3779 55.1721V49.7883Z" fill="#29ABE2"/>
<path d="M46.9581 49.9385V55.4095L45.4509 56.2635V50.898L46.9581 49.9385Z" fill="#29ABE2"/>
<path d="M48.6498 54.2734V49.0276L48.8344 48.9282V54.3465L47.3779 55.1721V54.9956L48.6498 54.2734Z" fill="#0C0F14"/>
<path d="M46.7735 55.3385V50.0379L46.9581 49.9385V55.4095L45.4509 56.2635V56.087L46.7735 55.3385Z" fill="#0C0F14"/>
<path d="M41.4201 38.4995L44.3798 36.8442V30.2251L41.4201 31.9352V38.4995Z" fill="#8C6239"/>
<path d="M41.4201 31.935L44.3798 30.225L44.1607 30.0972L41.201 31.8052L41.4201 31.935Z" fill="#C69C6D"/>
<path d="M44.0958 36.7265V30.9878L41.7062 32.2901V38.0289L44.0958 36.7265Z" fill="url(#paint0_linear_1870_36313)"/>
<path d="M43.7307 36.6575V31.1236L44.0958 30.9248V36.7264L41.7062 38.0288V37.763L43.7307 36.6575Z" fill="#603813"/>
<path d="M41.201 31.8052L41.4201 31.935V38.6556L41.201 38.5663V31.8052Z" fill="#603813"/>
<path d="M42.7914 31.6998L43.0369 31.5537V37.2215L42.7914 37.3533V31.6998Z" fill="#8C6239"/>
<path d="M42.5967 31.8031L42.7914 31.7078V37.3532L42.5967 37.3207V31.8031Z" fill="#603813"/>
<path d="M43.0369 34.7001L44.0248 34.1382V33.8887L43.0369 34.4506V34.7001Z" fill="#8C6239"/>
<path d="M43.0369 34.3348V34.4504L44.0248 33.8885L43.8584 33.8804L43.0369 34.3348Z" fill="#603813"/>
<path d="M41.7062 35.4525L42.7691 34.8135V34.564L41.7062 35.1806V35.4525Z" fill="#8C6239"/>
<path d="M41.7062 35.0854V35.1807L42.7691 34.564L42.6028 34.5559L41.7062 35.0854Z" fill="#603813"/>
<path d="M41.483 39.0696L44.5989 37.256V36.8442L41.483 38.5969V39.0696Z" fill="#8C6239"/>
<path d="M41.201 38.4751L41.483 38.5745V39.0695L41.201 38.9417V38.4751Z" fill="#603813"/>
<path d="M41.3106 38.5177L41.483 38.5968L44.5989 36.8442L44.3798 36.7874L41.3106 38.5177Z" fill="#603813"/>
<path d="M35.8396 41.5706L38.8013 39.9173V33.2961L35.8396 35.0062V41.5706Z" fill="#8C6239"/>
<path d="M35.8396 35.0063L38.8012 33.2963L38.5801 33.1685L35.6205 34.8785L35.8396 35.0063Z" fill="#C69C6D"/>
<path d="M38.5152 39.7976V34.0588L36.1256 35.3632V41.1019L38.5152 39.7976Z" fill="url(#paint1_linear_1870_36313)"/>
<path d="M38.1501 39.7288V34.1949L38.5152 33.9961V39.7977L36.1256 41.1021V40.8343L38.1501 39.7288Z" fill="#603813"/>
<path d="M35.6205 34.8784L35.8396 35.0062V41.7268L35.6205 41.6395V34.8784Z" fill="#603813"/>
<path d="M37.2109 34.7711L37.4563 34.625V40.2927L37.2109 40.4246V34.7711Z" fill="#8C6239"/>
<path d="M37.0182 34.8764L37.2109 34.7791V40.4245L37.0182 40.392V34.8764Z" fill="#603813"/>
<path d="M37.4564 37.7733L38.4443 37.2114V36.9619L37.4564 37.5238V37.7733Z" fill="#8C6239"/>
<path d="M37.4564 37.4061V37.5237L38.4443 36.9618L38.2779 36.9517L37.4564 37.4061Z" fill="#603813"/>
<path d="M36.1256 38.5238L37.1886 37.8868V37.6353L36.1256 38.254V38.5238Z" fill="#8C6239"/>
<path d="M36.1256 38.1587V38.254L37.1886 37.6353L37.0222 37.6272L36.1256 38.1587Z" fill="#603813"/>
<path d="M35.9025 42.1428L39.0203 40.3272V39.9175L35.9025 41.6681V42.1428Z" fill="#8C6239"/>
<path d="M35.6205 41.5464L35.9025 41.6458V42.1428L35.6205 42.013V41.5464Z" fill="#603813"/>
<path d="M35.73 41.589L35.9025 41.6681L39.0203 39.9175L38.8013 39.8586L35.73 41.589Z" fill="#603813"/>
<path d="M52.5609 32.3348L55.5206 30.6795V24.0583L52.5609 25.7684V32.3348Z" fill="#8C6239"/>
<path d="M52.5609 25.7683L55.5205 24.0582L55.3014 23.9304L52.3418 25.6405L52.5609 25.7683Z" fill="#C69C6D"/>
<path d="M55.2365 30.5598V24.821L52.8469 26.1254V31.8641L55.2365 30.5598Z" fill="url(#paint2_linear_1870_36313)"/>
<path d="M54.8694 30.4906V24.9588L55.2365 24.76V30.5596L52.8469 31.864V31.5962L54.8694 30.4906Z" fill="#603813"/>
<path d="M52.3418 25.6406L52.5609 25.7684V32.491L52.3418 32.4018V25.6406Z" fill="#603813"/>
<path d="M53.9322 25.5329L54.1776 25.3889V31.0546L53.9322 31.1885V25.5329Z" fill="#8C6239"/>
<path d="M53.7374 25.6386L53.9322 25.5432V31.1886L53.7374 31.1542V25.6386Z" fill="#603813"/>
<path d="M54.1776 28.5353L55.1635 27.9734V27.7239L54.1776 28.2858V28.5353Z" fill="#8C6239"/>
<path d="M54.1776 28.1702V28.2858L55.1635 27.7239L54.9971 27.7158L54.1776 28.1702Z" fill="#603813"/>
<path d="M52.8469 29.2859L53.9079 28.6489V28.3994L52.8469 29.0161V29.2859Z" fill="#8C6239"/>
<path d="M52.8469 28.9206V29.0159L53.9079 28.3992L53.7415 28.3911L52.8469 28.9206Z" fill="#603813"/>
<path d="M52.6238 32.9048L55.7396 31.0892V30.6794L52.6238 32.4321V32.9048Z" fill="#8C6239"/>
<path d="M52.3418 32.3103L52.6238 32.4077V32.9047L52.3418 32.7769V32.3103Z" fill="#603813"/>
<path d="M52.4514 32.351L52.6238 32.4321L55.7396 30.6794L55.5205 30.6206L52.4514 32.351Z" fill="#603813"/>
<path d="M46.9803 35.406L49.942 33.7507V27.1316L46.9803 28.8396V35.406Z" fill="#8C6239"/>
<path d="M46.9804 28.8395L49.9421 27.1315L49.7209 27.0037L46.7613 28.7117L46.9804 28.8395Z" fill="#C69C6D"/>
<path d="M49.656 33.633V27.8943L47.2664 29.1966V34.9354L49.656 33.633Z" fill="url(#paint3_linear_1870_36313)"/>
<path d="M49.2908 33.564V28.0301L49.656 27.8313V33.6329L47.2664 34.9353V34.6695L49.2908 33.564Z" fill="#603813"/>
<path d="M46.7613 28.7117L46.9804 28.8395V35.5621L46.7613 35.4728V28.7117Z" fill="#603813"/>
<path d="M48.3517 28.6063L48.5971 28.4602V34.128L48.3517 34.2598V28.6063Z" fill="#8C6239"/>
<path d="M48.1589 28.7096L48.3516 28.6143V34.2597L48.1589 34.2272V28.7096Z" fill="#603813"/>
<path d="M48.5971 31.6063L49.585 31.0444V30.7949L48.5971 31.3568V31.6063Z" fill="#8C6239"/>
<path d="M48.5971 31.2413V31.3569L49.585 30.795L49.4187 30.7869L48.5971 31.2413Z" fill="#603813"/>
<path d="M47.2664 32.3569L48.3293 31.72V31.4705L47.2664 32.0871V32.3569Z" fill="#8C6239"/>
<path d="M47.2664 31.9919V32.0872L48.3293 31.4705L48.163 31.4624L47.2664 31.9919Z" fill="#603813"/>
<path d="M47.0433 35.976L50.1591 34.1605V33.7507L47.0433 35.5034V35.976Z" fill="#8C6239"/>
<path d="M46.7613 35.3816L47.0433 35.479V35.976L46.7613 35.8482V35.3816Z" fill="#603813"/>
<path d="M46.8708 35.4242L47.0433 35.5033L50.1591 33.7506L49.9421 33.6938L46.8708 35.4242Z" fill="#603813"/>
<path d="M35.8396 59.5698L38.8013 57.9145V51.2954L35.8396 53.0034V59.5698Z" fill="#8C6239"/>
<path d="M35.8396 53.0036L38.8012 51.2956L38.5801 51.1658L35.6205 52.8758L35.8396 53.0036Z" fill="#C69C6D"/>
<path d="M38.5152 57.7969V52.0562L36.1256 53.3605V59.0993L38.5152 57.7969Z" fill="url(#paint4_linear_1870_36313)"/>
<path d="M38.1501 57.728V52.1942L38.5152 51.9954V57.797L36.1256 59.0993V58.8336L38.1501 57.728Z" fill="#603813"/>
<path d="M35.6205 52.8757L35.8396 53.0035V59.7261L35.6205 59.6369V52.8757Z" fill="#603813"/>
<path d="M37.2109 52.7683L37.4563 52.6243V58.292L37.2109 58.4239V52.7683Z" fill="#8C6239"/>
<path d="M37.0182 52.8737L37.2109 52.7783V58.4238L37.0182 58.3913V52.8737Z" fill="#603813"/>
<path d="M37.4564 55.7704L38.4443 55.2085V54.959L37.4564 55.5209V55.7704Z" fill="#8C6239"/>
<path d="M37.4564 55.4053V55.5209L38.4443 54.959L38.2779 54.9509L37.4564 55.4053Z" fill="#603813"/>
<path d="M36.1256 56.521L37.1886 55.884V55.6345L36.1256 56.2512V56.521Z" fill="#8C6239"/>
<path d="M36.1256 56.1559V56.2513L37.1886 55.6346L37.0222 55.6265L36.1256 56.1559Z" fill="#603813"/>
<path d="M35.9025 60.1399L39.0203 58.3243V57.9146L35.9025 59.6672V60.1399Z" fill="#8C6239"/>
<path d="M35.6205 59.5457L35.9025 59.643V60.14L35.6205 60.0122V59.5457Z" fill="#603813"/>
<path d="M35.73 59.5883L35.9025 59.6674L39.0203 57.9147L38.8013 57.8579L35.73 59.5883Z" fill="#603813"/>
<path d="M52.5609 50.332L55.5206 48.6788V42.0576L52.5609 43.7677V50.332Z" fill="#8C6239"/>
<path d="M52.5609 43.7675L55.5205 42.0575L55.3014 41.9297L52.3418 43.6377L52.5609 43.7675Z" fill="#C69C6D"/>
<path d="M55.2365 48.5591V42.8203L52.8469 44.1247V49.8634L55.2365 48.5591Z" fill="url(#paint5_linear_1870_36313)"/>
<path d="M54.8694 48.49V42.9561L55.2365 42.7573V48.559L52.8469 49.8633V49.5955L54.8694 48.49Z" fill="#603813"/>
<path d="M52.3418 43.6377L52.5609 43.7675V50.4881L52.3418 50.4009V43.6377Z" fill="#603813"/>
<path d="M53.9322 43.5323L54.1776 43.3862V49.054L53.9322 49.1858V43.5323Z" fill="#8C6239"/>
<path d="M53.7374 43.6377L53.9322 43.5403V49.1857L53.7374 49.1533V43.6377Z" fill="#603813"/>
<path d="M54.1776 46.5346L55.1635 45.9727V45.7231L54.1776 46.2851V46.5346Z" fill="#8C6239"/>
<path d="M54.1776 46.1673V46.2849L55.1635 45.723L54.9971 45.7129L54.1776 46.1673Z" fill="#603813"/>
<path d="M52.8469 47.285L53.9079 46.648V46.3965L52.8469 47.0152V47.285Z" fill="#8C6239"/>
<path d="M52.8469 46.9199V47.0152L53.9079 46.3965L53.7415 46.3884L52.8469 46.9199Z" fill="#603813"/>
<path d="M52.6238 50.902L55.7396 49.0885V48.6787L52.6238 50.4314V50.902Z" fill="#8C6239"/>
<path d="M52.3418 50.3076L52.6238 50.407V50.902L52.3418 50.7742V50.3076Z" fill="#603813"/>
<path d="M52.4514 50.3502L52.6238 50.4314L55.7396 48.6787L55.5205 48.6199L52.4514 50.3502Z" fill="#603813"/>
<path d="M45.7146 62.8461L43.1627 64.3188V63.5338L45.7146 62.061V62.8461Z" fill="#BCCCDD"/>
<path d="M40.6128 62.8461L43.1627 64.3188V63.5338L40.6128 62.061V62.8461Z" fill="#84939C"/>
<path d="M43.1627 60.5881L40.6128 62.0609L43.1627 63.5336L45.7146 62.0609L43.1627 60.5881Z" fill="#C8D6ED"/>
<path d="M44.4914 52.9304L43.0978 53.3645L41.836 52.9304V62.142C41.8436 62.2594 41.8831 62.3725 41.9503 62.469C42.0176 62.5656 42.1099 62.6419 42.2174 62.6897C42.5093 62.8357 42.8314 62.9109 43.1578 62.9091C43.4842 62.9074 43.8055 62.8287 44.0958 62.6796C44.2025 62.632 44.2949 62.5573 44.3639 62.4631C44.433 62.3688 44.4762 62.2581 44.4893 62.142V62.142L44.4914 52.9304Z" fill="#F6F6F6"/>
<path d="M43.1627 50.0479L40.6128 51.5206L43.1627 52.9933L45.7146 51.5206L43.1627 50.0479Z" fill="#C8D6ED"/>
<path d="M45.7146 52.3058L43.1627 53.7785V52.9935L45.7146 51.5208V52.3058Z" fill="#BCCCDD"/>
<path d="M40.6128 52.3058L43.1627 53.7785V52.9935L40.6128 51.5208V52.3058Z" fill="#84939C"/>
<path d="M37.1724 47.3479L42.0591 50.2568V53.1658L37.1724 50.2568V47.3479Z" fill="#BCCCDD"/>
<path d="M58.7277 55.4318L56.1778 56.9045V56.1195L58.7277 54.6467V55.4318Z" fill="#BCCCDD"/>
<path d="M53.6259 55.4318L56.1778 56.9045V56.1195L53.6259 54.6467V55.4318Z" fill="#84939C"/>
<path d="M56.1778 53.1738L53.6259 54.6465L56.1778 56.1193L58.7276 54.6465L56.1778 53.1738Z" fill="#C8D6ED"/>
<path d="M57.5044 45.5183L56.1108 45.9524L54.8491 45.5183V54.7299C54.8562 54.8469 54.8953 54.9597 54.9622 55.056C55.0291 55.1522 55.1212 55.2282 55.2284 55.2756C55.5193 55.4236 55.8412 55.5008 56.1676 55.5008C56.4941 55.5008 56.8159 55.4236 57.1068 55.2756C57.2131 55.2271 57.3052 55.1523 57.3744 55.0582C57.4437 54.9641 57.4877 54.8539 57.5024 54.738L57.5044 45.5183Z" fill="#F6F6F6"/>
<path d="M56.1778 42.6335L53.6259 44.1063L56.1778 45.579L58.7276 44.1063L56.1778 42.6335Z" fill="#C8D6ED"/>
<path d="M58.7277 44.8915L56.1778 46.3642V45.5792L58.7277 44.1064V44.8915Z" fill="#BCCCDD"/>
<path d="M53.6259 44.8915L56.1778 46.3642V45.5792L53.6259 44.1064V44.8915Z" fill="#84939C"/>
<path d="M54.2567 37.4873L45.7145 37.5766L50.6013 40.4855L59.1435 40.3962L54.2567 37.4873Z" fill="#BCCCDD"/>
<path d="M45.7146 37.5764L50.6013 40.4853L42.0591 50.2568L37.1724 47.3479L45.7146 37.5764Z" fill="#84939C"/>
<path d="M59.1435 40.3962L50.6013 40.4855L42.0591 50.257V53.1659L59.1435 43.3052V40.3962Z" fill="#F6F6F6"/>
<path d="M51.3661 42.1469L57.4761 42.084V42.3416L44.7997 49.6586L51.3661 42.1469Z" fill="#BCCCDD"/>
<path d="M57.4761 42.084L56.2143 42.0962L46.5179 47.6929L44.7997 49.6586L57.4761 42.3416V42.084Z" fill="#C8D6ED"/>
<path d="M23.0334 38.4995L20.0717 36.8442V30.2251L23.0334 31.9352V38.4995Z" fill="#8C6239"/>
<path d="M23.0334 31.935L20.0717 30.225L20.2928 30.0972L23.2525 31.8052L23.0334 31.935Z" fill="#C69C6D"/>
<path d="M20.3577 36.7265V30.9878L22.7474 32.2901V38.0289L20.3577 36.7265Z" fill="url(#paint6_linear_1870_36313)"/>
<path d="M20.7229 36.6575V31.1236L20.3577 30.9248V36.7264L22.7474 38.0288V37.763L20.7229 36.6575Z" fill="#603813"/>
<path d="M23.2525 31.8052L23.0334 31.935V38.6556L23.2525 38.5663V31.8052Z" fill="#603813"/>
<path d="M21.6621 31.6998L21.4166 31.5537V37.2215L21.6621 37.3533V31.6998Z" fill="#8C6239"/>
<path d="M21.8548 31.8031L21.6621 31.7078V37.3532L21.8548 37.3207V31.8031Z" fill="#603813"/>
<path d="M21.4167 34.7001L20.4288 34.1382V33.8887L21.4167 34.4506V34.7001Z" fill="#8C6239"/>
<path d="M21.4167 34.3348V34.4504L20.4288 33.8885L20.5951 33.8804L21.4167 34.3348Z" fill="#603813"/>
<path d="M22.7473 35.4525L21.6844 34.8135V34.564L22.7473 35.1806V35.4525Z" fill="#8C6239"/>
<path d="M22.7473 35.0854V35.1807L21.6844 34.564L21.8507 34.5559L22.7473 35.0854Z" fill="#603813"/>
<path d="M22.9705 39.0696L19.8547 37.256V36.8442L22.9705 38.5969V39.0696Z" fill="#8C6239"/>
<path d="M23.2525 38.4751L22.9705 38.5745V39.0695L23.2525 38.9417V38.4751Z" fill="#603813"/>
<path d="M23.1429 38.5177L22.9705 38.5968L19.8547 36.8442L20.0717 36.7874L23.1429 38.5177Z" fill="#603813"/>
<path d="M28.6119 41.5706L25.6522 39.9173V33.2961L28.6119 35.0062V41.5706Z" fill="#8C6239"/>
<path d="M28.6119 35.0063L25.6522 33.2963L25.8713 33.1685L28.833 34.8785L28.6119 35.0063Z" fill="#C69C6D"/>
<path d="M25.9383 39.7976V34.0588L28.3279 35.3632V41.1019L25.9383 39.7976Z" fill="url(#paint7_linear_1870_36313)"/>
<path d="M26.3034 39.7288V34.1949L25.9383 33.9961V39.7977L28.3279 41.1021V40.8343L26.3034 39.7288Z" fill="#603813"/>
<path d="M28.833 34.8784L28.6119 35.0062V41.7268L28.833 41.6395V34.8784Z" fill="#603813"/>
<path d="M27.2426 34.7711L26.9951 34.625V40.2927L27.2426 40.4246V34.7711Z" fill="#8C6239"/>
<path d="M27.4353 34.8764L27.2426 34.7791V40.4245L27.4353 40.392V34.8764Z" fill="#603813"/>
<path d="M26.9951 37.7733L26.0093 37.2114V36.9619L26.9951 37.5238V37.7733Z" fill="#8C6239"/>
<path d="M26.9951 37.4061V37.5237L26.0093 36.9618L26.1756 36.9517L26.9951 37.4061Z" fill="#603813"/>
<path d="M28.3279 38.5238L27.265 37.8868V37.6353L28.3279 38.254V38.5238Z" fill="#8C6239"/>
<path d="M28.3279 38.1587V38.254L27.265 37.6353L27.4313 37.6272L28.3279 38.1587Z" fill="#603813"/>
<path d="M28.549 42.1428L25.4332 40.3272V39.9175L28.549 41.6681V42.1428Z" fill="#8C6239"/>
<path d="M28.833 41.5464L28.549 41.6458V42.1428L28.833 42.013V41.5464Z" fill="#603813"/>
<path d="M28.7214 41.589L28.549 41.6681L25.4332 39.9175L25.6522 39.8586L28.7214 41.589Z" fill="#603813"/>
<path d="M11.8926 32.3348L8.93298 30.6795V24.0583L11.8926 25.7684V32.3348Z" fill="#8C6239"/>
<path d="M11.8926 25.7683L8.93298 24.0582L9.15207 23.9304L12.1117 25.6405L11.8926 25.7683Z" fill="#C69C6D"/>
<path d="M9.21698 30.5598V24.821L11.6066 26.1254V31.8641L9.21698 30.5598Z" fill="url(#paint8_linear_1870_36313)"/>
<path d="M9.58212 30.4906V24.9588L9.21698 24.76V30.5596L11.6066 31.864V31.5962L9.58212 30.4906Z" fill="#603813"/>
<path d="M12.1117 25.6406L11.8926 25.7684V32.491L12.1117 32.4018V25.6406Z" fill="#603813"/>
<path d="M10.5213 25.5329L10.2759 25.3889V31.0546L10.5213 31.1885V25.5329Z" fill="#8C6239"/>
<path d="M10.7161 25.6386L10.5214 25.5432V31.1886L10.7161 31.1542V25.6386Z" fill="#603813"/>
<path d="M10.2759 28.5353L9.28796 27.9734V27.7239L10.2759 28.2858V28.5353Z" fill="#8C6239"/>
<path d="M10.2759 28.1702V28.2858L9.28796 27.7239L9.4543 27.7158L10.2759 28.1702Z" fill="#603813"/>
<path d="M11.6066 29.2859L10.5436 28.6489V28.3994L11.6066 29.0161V29.2859Z" fill="#8C6239"/>
<path d="M11.6066 28.9206V29.0159L10.5436 28.3992L10.71 28.3911L11.6066 28.9206Z" fill="#603813"/>
<path d="M11.8298 32.9048L8.71393 31.0892V30.6794L11.8298 32.4321V32.9048Z" fill="#8C6239"/>
<path d="M12.1117 32.3103L11.8298 32.4077V32.9047L12.1117 32.7769V32.3103Z" fill="#603813"/>
<path d="M12.0022 32.351L11.8298 32.4321L8.71393 30.6794L8.93301 30.6206L12.0022 32.351Z" fill="#603813"/>
<path d="M17.4711 35.406L14.5115 33.7507V27.1316L17.4711 28.8396V35.406Z" fill="#8C6239"/>
<path d="M17.4711 28.8395L14.5115 27.1315L14.7326 27.0037L17.6922 28.7117L17.4711 28.8395Z" fill="#C69C6D"/>
<path d="M14.7975 33.633V27.8943L17.1871 29.1966V34.9354L14.7975 33.633Z" fill="url(#paint9_linear_1870_36313)"/>
<path d="M15.1626 33.564V28.0301L14.7975 27.8313V33.6329L17.1871 34.9353V34.6695L15.1626 33.564Z" fill="#603813"/>
<path d="M17.6922 28.7117L17.4711 28.8395V35.5621L17.6922 35.4728V28.7117Z" fill="#603813"/>
<path d="M16.1018 28.6063L15.8564 28.4602V34.128L16.1018 34.2598V28.6063Z" fill="#8C6239"/>
<path d="M16.2946 28.7096L16.1019 28.6143V34.2597L16.2946 34.2272V28.7096Z" fill="#603813"/>
<path d="M15.8564 31.6063L14.8685 31.0444V30.7949L15.8564 31.3568V31.6063Z" fill="#8C6239"/>
<path d="M15.8564 31.2413V31.3569L14.8685 30.795L15.0349 30.7869L15.8564 31.2413Z" fill="#603813"/>
<path d="M17.1871 32.3569L16.1241 31.72V31.4705L17.1871 32.0871V32.3569Z" fill="#8C6239"/>
<path d="M17.1871 31.9919V32.0872L16.1241 31.4705L16.2905 31.4624L17.1871 31.9919Z" fill="#603813"/>
<path d="M17.4103 35.976L14.2924 34.1605V33.7507L17.4103 35.5034V35.976Z" fill="#8C6239"/>
<path d="M17.6922 35.3816L17.4103 35.479V35.976L17.6922 35.8482V35.3816Z" fill="#603813"/>
<path d="M17.5827 35.4242L17.4103 35.5033L14.2924 33.7506L14.5115 33.6938L17.5827 35.4242Z" fill="#603813"/>
<path d="M23.0334 55.2207L20.0717 53.5654V46.9463L23.0334 48.6543V55.2207Z" fill="#8C6239"/>
<path d="M23.0334 48.6543L20.0717 46.9462L20.2928 46.8164L23.2525 48.5265L23.0334 48.6543Z" fill="#C69C6D"/>
<path d="M20.3577 53.4478V47.707L22.7474 49.0114V54.7501L20.3577 53.4478Z" fill="url(#paint10_linear_1870_36313)"/>
<path d="M20.7229 53.3789V47.845L20.3577 47.6462V53.4479L22.7474 54.7502V54.4845L20.7229 53.3789Z" fill="#603813"/>
<path d="M23.2525 48.5266L23.0334 48.6544V55.377L23.2525 55.2877V48.5266Z" fill="#603813"/>
<path d="M21.6621 48.4189L21.4166 48.2749V53.9426L21.6621 54.0745V48.4189Z" fill="#8C6239"/>
<path d="M21.8548 48.5245L21.6621 48.4292V54.0746L21.8548 54.0422V48.5245Z" fill="#603813"/>
<path d="M21.4167 51.4213L20.4288 50.8594V50.6099L21.4167 51.1718V51.4213Z" fill="#8C6239"/>
<path d="M21.4167 51.0562V51.1718L20.4288 50.6099L20.5951 50.6018L21.4167 51.0562Z" fill="#603813"/>
<path d="M22.7473 52.1719L21.6844 51.5349V51.2854L22.7473 51.9021V52.1719Z" fill="#8C6239"/>
<path d="M22.7473 51.8068V51.9021L21.6844 51.2855L21.8507 51.2773L22.7473 51.8068Z" fill="#603813"/>
<path d="M22.9705 55.7907L19.8547 53.9752V53.5654L22.9705 55.3181V55.7907Z" fill="#8C6239"/>
<path d="M23.2525 55.1963L22.9705 55.2937V55.7907L23.2525 55.6629V55.1963Z" fill="#603813"/>
<path d="M23.1429 55.2389L22.9705 55.318L19.8547 53.5653L20.0717 53.5085L23.1429 55.2389Z" fill="#603813"/>
<path d="M28.6119 58.292L25.6522 56.6367V50.0176L28.6119 51.7276V58.292Z" fill="#8C6239"/>
<path d="M28.6119 51.7275L25.6522 50.0174L25.8713 49.8896L28.833 51.5977L28.6119 51.7275Z" fill="#C69C6D"/>
<path d="M25.9383 56.519V50.7803L28.3279 52.0826V57.8234L25.9383 56.519Z" fill="url(#paint11_linear_1870_36313)"/>
<path d="M26.3034 56.4499V50.9161L25.9383 50.7173V56.5189L28.3279 57.8233V57.5555L26.3034 56.4499Z" fill="#603813"/>
<path d="M28.833 51.5977L28.6119 51.7275V58.448L28.833 58.3588V51.5977Z" fill="#603813"/>
<path d="M27.2426 51.4922L26.9951 51.3462V57.0139L27.2426 57.1458V51.4922Z" fill="#8C6239"/>
<path d="M27.4353 51.5979L27.2426 51.5005V57.1459L27.4353 57.1135V51.5979Z" fill="#603813"/>
<path d="M26.9951 54.4943L26.0093 53.9324V53.6809L26.9951 54.2448V54.4943Z" fill="#8C6239"/>
<path d="M26.9951 54.1272V54.2449L26.0093 53.681L26.1756 53.6729L26.9951 54.1272Z" fill="#603813"/>
<path d="M28.3279 55.2449L27.265 54.606V54.3564L28.3279 54.9752V55.2449Z" fill="#8C6239"/>
<path d="M28.3279 54.8778V54.9752L27.265 54.3565L27.4313 54.3484L28.3279 54.8778Z" fill="#603813"/>
<path d="M28.549 58.862L25.4332 57.0485V56.6367L28.549 58.3894V58.862Z" fill="#8C6239"/>
<path d="M28.833 58.2676L28.549 58.367V58.8619L28.833 58.7341V58.2676Z" fill="#603813"/>
<path d="M28.7214 58.3102L28.549 58.3893L25.4332 56.6366L25.6522 56.5798L28.7214 58.3102Z" fill="#603813"/>
<path d="M11.8926 49.056L8.93298 47.4007V40.7795L11.8926 42.4896V49.056Z" fill="#8C6239"/>
<path d="M11.8926 42.4895L8.93298 40.7794L9.15207 40.6516L12.1117 42.3617L11.8926 42.4895Z" fill="#C69C6D"/>
<path d="M9.21698 47.281V41.5422L11.6066 42.8466V48.5853L9.21698 47.281Z" fill="url(#paint12_linear_1870_36313)"/>
<path d="M9.58212 47.2121V41.6782L9.21698 41.4814V47.2811L11.6066 48.5854V48.3176L9.58212 47.2121Z" fill="#603813"/>
<path d="M12.1117 42.3618L11.8926 42.4896V49.2122L12.1117 49.1229V42.3618Z" fill="#603813"/>
<path d="M10.5213 42.2544L10.2759 42.1104V47.7761L10.5213 47.91V42.2544Z" fill="#8C6239"/>
<path d="M10.7161 42.3598L10.5214 42.2625V47.9099L10.7161 47.8754V42.3598Z" fill="#603813"/>
<path d="M10.2759 45.2565L9.28796 44.6946V44.4451L10.2759 45.007V45.2565Z" fill="#8C6239"/>
<path d="M10.2759 44.8914V45.007L9.28796 44.4451L9.4543 44.437L10.2759 44.8914Z" fill="#603813"/>
<path d="M11.6066 46.0071L10.5436 45.3701V45.1206L11.6066 45.7373V46.0071Z" fill="#8C6239"/>
<path d="M11.6066 45.6418V45.7372L10.5436 45.1205L10.71 45.1104L11.6066 45.6418Z" fill="#603813"/>
<path d="M11.8298 49.6259L8.71393 47.8104V47.4006L11.8298 49.1533V49.6259Z" fill="#8C6239"/>
<path d="M12.1117 49.0317L11.8298 49.1291V49.6261L12.1117 49.4963V49.0317Z" fill="#603813"/>
<path d="M12.0022 49.0721L11.8298 49.1533L8.71393 47.4006L8.93301 47.3418L12.0022 49.0721Z" fill="#603813"/>
<path d="M17.4711 52.1272L14.5115 50.4719V43.8528L17.4711 45.5608V52.1272Z" fill="#8C6239"/>
<path d="M17.4711 45.5608L14.5115 43.8527L14.7326 43.7229L17.6922 45.433L17.4711 45.5608Z" fill="#C69C6D"/>
<path d="M14.7975 50.3523V44.6135L17.1871 45.9179V51.6566L14.7975 50.3523Z" fill="url(#paint13_linear_1870_36313)"/>
<path d="M15.1626 50.2831V44.7513L14.7975 44.5525V50.3521L17.1871 51.6564V51.3907L15.1626 50.2831Z" fill="#603813"/>
<path d="M17.6922 45.4331L17.4711 45.5609V52.2835L17.6922 52.1942V45.4331Z" fill="#603813"/>
<path d="M16.1018 45.3254L15.8564 45.1814V50.8471L16.1018 50.981V45.3254Z" fill="#8C6239"/>
<path d="M16.2946 45.431L16.1019 45.3357V50.9811L16.2946 50.9466V45.431Z" fill="#603813"/>
<path d="M15.8564 48.3278L14.8685 47.7659V47.5164L15.8564 48.0783V48.3278Z" fill="#8C6239"/>
<path d="M15.8564 47.9627V48.0783L14.8685 47.5164L15.0349 47.5083L15.8564 47.9627Z" fill="#603813"/>
<path d="M17.1871 49.0784L16.1241 48.4414V48.1919L17.1871 48.8086V49.0784Z" fill="#8C6239"/>
<path d="M17.1871 48.713V48.8084L16.1241 48.1917L16.2905 48.1836L17.1871 48.713Z" fill="#603813"/>
<path d="M17.4103 52.6972L14.2924 50.8817V50.4719L17.4103 52.2246V52.6972Z" fill="#8C6239"/>
<path d="M17.6922 52.1028L17.4103 52.2001V52.6971L17.6922 52.5693V52.1028Z" fill="#603813"/>
<path d="M17.5827 52.1454L17.4103 52.2245L14.2924 50.4718L14.5115 50.415L17.5827 52.1454Z" fill="#603813"/>
<path d="M54.2385 16.9402L52.997 16.2039L52.9869 12.5789L54.2283 13.3132L54.2385 16.9402Z" fill="#888888"/>
<path d="M54.2283 13.3131L52.9869 12.5788L54.1533 11.8911L55.3948 12.6254L54.2283 13.3131Z" fill="#DBDBDB"/>
<path d="M54.4352 19.1796L53.1938 18.4453L50.6479 16.3113L51.8874 17.0476L54.4352 19.1796Z" fill="#808080"/>
<path d="M55.3948 12.6255L55.411 18.6056L54.4353 19.1797L51.8874 17.0477L51.8976 20.6727L50.7291 21.3604L50.7129 15.3823L51.6907 14.8062L54.2385 16.9402L54.2284 13.3132L55.3948 12.6255Z" fill="white"/>
<path d="M50.7291 21.3605L49.4897 20.6261L49.4734 14.646L50.7129 15.3824L50.7291 21.3605Z" fill="#888888"/>
<path d="M50.7129 15.3822L49.4734 14.6459L50.4512 14.0718L51.6907 14.8061L50.7129 15.3822Z" fill="#DBDBDB"/>
<path d="M48.9602 22.4029L47.7188 21.6686L47.2603 20.6543L48.5018 21.3907L48.9602 22.4029Z" fill="#808080"/>
<path d="M46.5077 21.5125L45.2662 20.7761L46.885 19.8247L48.1245 20.559L46.5077 21.5125Z" fill="#DBDBDB"/>
<path d="M48.1244 20.5589L46.885 19.8246L46.0695 18.0212L47.309 18.7556L48.1244 20.5589Z" fill="#808080"/>
<path d="M47.8932 17.0415L50.1996 21.6727L48.9602 22.4029L48.5017 21.3887L46.1365 22.7803L45.6861 24.328L44.469 25.04L46.7207 17.7373L47.8932 17.0415ZM46.5057 21.5043L48.1285 20.5509L47.3171 18.7475L46.5057 21.5043Z" fill="white"/>
<path d="M44.4751 25.0421L43.2357 24.3078L45.4853 16.9949L46.7268 17.7292L44.4751 25.0421Z" fill="#A4A4A4"/>
<path d="M46.7268 17.7291L45.4853 16.9948L46.6517 16.3071L47.8932 17.0415L46.7268 17.7291Z" fill="#DBDBDB"/>
<path d="M40.4038 25.841L39.1624 25.1067L40.4038 25.841Z" fill="#9E9E9E"/>
<path d="M40.4119 25.8452L39.1705 25.1108C39.1948 25.125 39.2212 25.1372 39.2476 25.1494L40.487 25.8878L40.4119 25.8492" fill="#A3A3A3"/>
<path d="M40.487 25.8877L39.2476 25.1533C39.2725 25.1642 39.2983 25.173 39.3246 25.1797L40.5641 25.9161L40.487 25.8877" fill="#A8A8A8"/>
<path d="M40.5681 25.9121L39.3287 25.1758L39.4098 25.1961L40.6513 25.9304C40.6231 25.9265 40.5953 25.9204 40.5681 25.9121" fill="#ADADAD"/>
<path d="M40.6472 25.9304L39.4058 25.196H39.495L40.7345 25.9304C40.7052 25.9291 40.676 25.9257 40.6472 25.9202" fill="#B3B3B3"/>
<path d="M40.7345 25.9406L39.4951 25.2063H39.5945L40.8359 25.9406C40.8021 25.9427 40.7683 25.9427 40.7345 25.9406Z" fill="#B8B8B8"/>
<path d="M40.8359 25.9426L39.5944 25.2083H39.6593H39.7161L40.9556 25.9426H40.8988C40.8785 25.9426 40.8562 25.9426 40.8359 25.9426Z" fill="#BDBDBD"/>
<path d="M40.9556 25.9303L39.7161 25.196L39.85 25.1655L41.0895 25.9019C41.0448 25.9141 41.0002 25.9222 40.9556 25.9303" fill="#C2C2C2"/>
<path d="M41.0895 25.9019L39.85 25.1655C39.9136 25.1481 39.976 25.1264 40.0367 25.1006L41.2781 25.8349C41.2132 25.862 41.1503 25.8843 41.0895 25.9019" fill="#C7C7C7"/>
<path d="M41.2782 25.8351L40.0367 25.1008C40.1247 25.0632 40.21 25.0198 40.2923 24.971C40.4958 24.8513 40.6827 24.7053 40.8481 24.5369L42.0896 25.2793C41.9233 25.4469 41.7366 25.5927 41.5337 25.7134C41.4513 25.7619 41.3659 25.8052 41.2782 25.8432" fill="#CCCCCC"/>
<path d="M42.0896 25.2791L40.8481 24.5448L40.9252 24.4657C40.9576 24.4312 40.9881 24.3947 41.0205 24.3582L42.2599 25.0925C42.2295 25.129 42.1971 25.1655 42.1646 25.2C42.1322 25.2345 42.1139 25.2527 42.0896 25.2791Z" fill="#C7C7C7"/>
<path d="M42.2599 25.0764L41.0205 24.3421C41.0611 24.2934 41.1017 24.2427 41.1422 24.1899L42.3817 24.9263C42.3431 24.977 42.3025 25.0277 42.2599 25.0764" fill="#C2C2C2"/>
<path d="M42.3817 24.9344L41.1422 24.198C41.1767 24.1534 41.2092 24.1067 41.2416 24.0601L42.4831 24.7944C42.4506 24.8431 42.4161 24.8877 42.3817 24.9344Z" fill="#BDBDBD"/>
<path d="M42.4831 24.7944L41.2416 24.0621C41.2721 24.0175 41.3025 23.9729 41.3309 23.9282L42.5703 24.6626C42.5419 24.7072 42.5135 24.7538 42.4831 24.7964" fill="#B8B8B8"/>
<path d="M42.5703 24.6706L41.3309 23.9363C41.3593 23.8917 41.3856 23.845 41.412 23.7983L42.6515 24.5347C42.6251 24.5793 42.5987 24.626 42.5703 24.6706" fill="#B3B3B3"/>
<path d="M42.6514 24.5246L41.412 23.7883L41.4302 23.7578C41.4485 23.7233 41.4688 23.6889 41.487 23.6523L42.7265 24.3887C42.7082 24.4232 42.69 24.4577 42.6697 24.4922L42.6514 24.5246Z" fill="#ADADAD"/>
<path d="M42.7265 24.3886L41.4871 23.6563L41.554 23.5225L42.7934 24.2568C42.7732 24.3035 42.7508 24.3481 42.7265 24.3927" fill="#A8A8A8"/>
<path d="M42.7996 24.2528L41.5601 23.5185L41.621 23.3826L42.8604 24.1169C42.8422 24.1636 42.8219 24.2082 42.7996 24.2528Z" fill="#A3A3A3"/>
<path d="M42.8543 24.1169L41.6149 23.3826C41.6352 23.3339 41.6534 23.2872 41.6717 23.2385L42.9131 23.9729C42.8949 24.0215 42.8746 24.0702 42.8543 24.1169Z" fill="#9E9E9E"/>
<path d="M42.9132 23.9728L41.6717 23.2385C41.692 23.1878 41.7102 23.135 41.7265 23.0823L42.9679 23.8166L42.9132 23.9728Z" fill="#999999"/>
<path d="M42.9679 23.8166L41.7264 23.0823C41.7406 23.0377 41.7548 22.9951 41.767 22.9504L43.0085 23.6868C42.9943 23.7294 42.9821 23.774 42.9679 23.8166" fill="#949494"/>
<path d="M43.0023 23.6872L41.7609 22.9508C41.7652 22.9389 41.7686 22.9267 41.771 22.9143L43.0125 23.6507C43.0082 23.6626 43.0048 23.6748 43.0023 23.6872Z" fill="#949494"/>
<path d="M43.0186 23.6566L41.7852 22.9142C41.8014 22.8554 41.8156 22.7945 41.8298 22.7336L43.0693 23.468C43.0571 23.5288 43.0429 23.5897 43.0267 23.6505" fill="#8F8F8F"/>
<path d="M43.0612 23.4678L41.8217 22.7335C41.8379 22.6544 41.8521 22.5753 41.8623 22.4941L43.1017 23.2285C43.0916 23.3096 43.0774 23.3887 43.0612 23.4678Z" fill="#8A8A8A"/>
<path d="M43.1018 23.2286L41.8623 22.4942C41.8789 22.3664 41.8864 22.2376 41.8846 22.1088C41.893 21.8689 41.8516 21.63 41.7629 21.4069C41.695 21.2391 41.5757 21.0971 41.4221 21.0012L42.6616 21.7356C42.8152 21.8313 42.9345 21.9734 43.0024 22.1413C43.0906 22.3645 43.1327 22.6032 43.1261 22.8431C43.1262 22.972 43.118 23.1007 43.1018 23.2286" fill="#858585"/>
<path d="M39.4727 27.1356L38.2333 26.4012C37.9997 26.2573 37.8162 26.0448 37.7079 25.7927C37.5568 25.4428 37.4841 25.064 37.4949 24.6831C37.495 24.4925 37.5072 24.3021 37.5314 24.113L38.7708 24.8474C38.7472 25.0371 38.7357 25.2282 38.7363 25.4194C38.7214 25.7991 38.7907 26.1773 38.9392 26.527C39.0482 26.7787 39.2315 26.991 39.4646 27.1356" fill="#858585"/>
<path d="M38.7709 24.8555L37.5253 24.1211C37.5416 23.9974 37.5618 23.8757 37.5882 23.752L38.8277 24.4883C38.8013 24.61 38.781 24.7338 38.7648 24.8555" fill="#8A8A8A"/>
<path d="M38.8337 24.4885L37.5943 23.7521C37.6126 23.6567 37.6369 23.5614 37.6633 23.4661L38.9027 24.2004C38.8763 24.2978 38.854 24.3931 38.8337 24.4885" fill="#8F8F8F"/>
<path d="M38.9027 24.2003L37.6633 23.466L37.6998 23.3341C37.712 23.2935 37.7262 23.253 37.7383 23.2124L38.9798 23.9467C38.9656 23.9873 38.9534 24.0279 38.9413 24.0705C38.9291 24.1131 38.9149 24.1577 38.9027 24.2003Z" fill="#949494"/>
<path d="M38.9797 23.9468L37.7383 23.2124C37.7667 23.1292 37.7951 23.0481 37.8255 22.969L39.0649 23.7033C39.0352 23.7845 39.0068 23.8656 38.9797 23.9468" fill="#999999"/>
<path d="M39.065 23.7033L37.8256 22.969C37.854 22.8919 37.8844 22.8168 37.9168 22.7397L39.1563 23.4761C39.1238 23.5512 39.0934 23.6262 39.065 23.7033Z" fill="#9E9E9E"/>
<path d="M39.1481 23.4762L37.9087 22.7398C37.9398 22.6668 37.9723 22.5938 38.0061 22.5208L39.2475 23.2571C39.213 23.3281 39.1786 23.4011 39.1481 23.4762" fill="#A3A3A3"/>
<path d="M39.2556 23.251L38.0142 22.5147C38.0486 22.4416 38.0852 22.3706 38.1237 22.2976L39.3631 23.0319C39.3246 23.105 39.2901 23.178 39.2556 23.251" fill="#A8A8A8"/>
<path d="M39.3631 23.0481L38.1339 22.3036C38.1724 22.2306 38.2109 22.1555 38.2535 22.0825L39.493 22.8189C39.4524 22.8919 39.4118 22.9649 39.3733 23.038" fill="#ADADAD"/>
<path d="M39.4828 22.8189L38.2434 22.0826L38.286 22.0116C38.3164 21.9568 38.3489 21.9041 38.3814 21.8513L39.6228 22.5877C39.5877 22.6404 39.5552 22.6932 39.5254 22.7459L39.4828 22.8189Z" fill="#B3B3B3"/>
<path d="M39.6228 22.5876L38.3813 21.8512C38.43 21.7741 38.4787 21.6991 38.5315 21.624L39.7709 22.3604C39.7202 22.4334 39.6695 22.5105 39.6228 22.5876" fill="#B8B8B8"/>
<path d="M39.7709 22.3604L38.5396 21.6281C38.5964 21.547 38.6532 21.4658 38.7141 21.3867L39.9535 22.1211C39.8947 22.2002 39.8359 22.2813 39.7791 22.3645" fill="#BDBDBD"/>
<path d="M39.9454 22.117L38.7059 21.3827C38.7769 21.2894 38.85 21.1981 38.925 21.1108L40.1665 21.8452C40.0894 21.9344 40.0164 22.0257 39.9454 22.117Z" fill="#C2C2C2"/>
<path d="M40.1624 21.8452L38.921 21.1109C39.0001 21.0176 39.0812 20.9283 39.1644 20.8411L39.2354 20.7681L40.4769 21.5024L40.4059 21.5754C40.3207 21.6627 40.2395 21.7539 40.1624 21.8452Z" fill="#C7C7C7"/>
<path d="M40.4809 21.5025L39.2394 20.7681C39.55 20.4541 39.8998 20.1814 40.2801 19.9567C40.4365 19.8631 40.5991 19.7804 40.7669 19.7092L42.0084 20.4436C41.8401 20.5151 41.6768 20.5978 41.5195 20.691C41.1395 20.9152 40.7903 21.188 40.4809 21.5025" fill="#CCCCCC"/>
<path d="M42.0084 20.4435L40.771 19.7092C40.8853 19.6608 41.0025 19.6195 41.1219 19.5854L42.3614 20.3218C42.2424 20.3542 42.1258 20.3949 42.0125 20.4435" fill="#C7C7C7"/>
<path d="M42.3573 20.3218L41.1179 19.5855C41.1986 19.5633 41.2806 19.5456 41.3633 19.5327L42.5967 20.267C42.513 20.2797 42.4303 20.298 42.3492 20.3218" fill="#C2C2C2"/>
<path d="M42.5967 20.267L41.3552 19.5327H41.3836C41.4454 19.5228 41.5077 19.5167 41.5702 19.5144L42.8117 20.2487L42.6251 20.267H42.5967Z" fill="#BDBDBD"/>
<path d="M42.8198 20.2447L41.5824 19.5104C41.6432 19.5073 41.7041 19.5073 41.765 19.5104L43.0024 20.2467C42.9422 20.2437 42.882 20.2437 42.8218 20.2467" fill="#B8B8B8"/>
<path d="M43.0024 20.2468L41.7629 19.5125C41.8177 19.5125 41.8705 19.5226 41.9232 19.5307L43.1626 20.2671C43.1097 20.2572 43.0561 20.2504 43.0024 20.2468" fill="#B3B3B3"/>
<path d="M43.1606 20.2671L41.9211 19.5308C41.9698 19.5308 42.0185 19.551 42.0652 19.5652L43.3066 20.2996C43.2586 20.2859 43.2099 20.275 43.1606 20.2671" fill="#ADADAD"/>
<path d="M43.3067 20.2995L42.0652 19.5652C42.1118 19.5794 42.1565 19.5956 42.2011 19.6139L43.4405 20.3482C43.3979 20.3299 43.3513 20.3137 43.3067 20.2995Z" fill="#A8A8A8"/>
<path d="M43.4406 20.3481L42.2011 19.6138L42.2802 19.6503L42.3269 19.6767L43.5683 20.411L43.5197 20.3866C43.4941 20.3722 43.4677 20.3593 43.4406 20.3481Z" fill="#A3A3A3"/>
<path d="M43.5683 20.4111L42.3268 19.6768H42.341L43.5825 20.4111H43.5683Z" fill="#9E9E9E"/>
<path d="M44.11 21.0197C44.2581 21.3723 44.3273 21.7531 44.3128 22.1354C44.3128 22.5953 44.2445 23.0526 44.11 23.4925C43.9706 23.958 43.7751 24.4049 43.5278 24.8232C43.2794 25.2456 42.9818 25.6372 42.6413 25.9896C42.3156 26.3317 41.9442 26.6273 41.5378 26.868C41.1974 27.0818 40.8183 27.2265 40.4221 27.2939C40.1194 27.346 39.808 27.3021 39.5315 27.1682C39.2688 27.0282 39.0608 26.8038 38.9412 26.5312C38.7927 26.1815 38.7234 25.8033 38.7384 25.4236C38.7375 24.9636 38.8059 24.5062 38.9412 24.0665C39.082 23.6031 39.2781 23.1583 39.5255 22.7419C39.7734 22.3185 40.0703 21.9256 40.4099 21.5714C40.7368 21.2264 41.1103 20.9287 41.5195 20.687C41.8597 20.4739 42.2378 20.3285 42.6332 20.259C42.9343 20.2066 43.2444 20.2498 43.5197 20.3827C43.7824 20.5227 43.9904 20.747 44.11 21.0197V21.0197ZM43.0024 23.6872C43.0808 23.4128 43.1204 23.1287 43.12 22.8433C43.1266 22.6034 43.0845 22.3646 42.9963 22.1414C42.9285 21.9736 42.8091 21.8315 42.6555 21.7357C42.5023 21.6468 42.3242 21.6105 42.1484 21.6323C41.9241 21.664 41.7091 21.7428 41.5175 21.8635C41.2822 22.0031 41.0684 22.176 40.8826 22.3768C40.6872 22.5893 40.5177 22.8242 40.3774 23.0766C40.2358 23.3336 40.1235 23.6058 40.0427 23.888C39.9645 24.1625 39.9249 24.4465 39.9251 24.7319C39.9185 24.9718 39.9606 25.2106 40.0488 25.4338C40.1169 25.6003 40.2344 25.7419 40.3856 25.8395C40.5382 25.9299 40.717 25.9657 40.8927 25.9409C41.1185 25.9105 41.3351 25.8316 41.5276 25.7097C41.7619 25.5704 41.9745 25.3975 42.1585 25.1964C42.3535 24.9836 42.523 24.7487 42.6636 24.4966C42.8074 24.2401 42.9211 23.9678 43.0024 23.6852" fill="white"/>
<path d="M35.935 28.9429L34.6935 28.2065L37.2393 26.7095L38.4787 27.4438L35.935 28.9429Z" fill="#DBDBDB"/>
<path d="M35.9207 24.0906L35.9349 28.9429L38.4787 27.4438L38.4828 28.5696L34.7482 30.7685L34.732 24.7884L35.9207 24.0906Z" fill="white"/>
<path d="M34.7482 30.7687L33.5088 30.0343L33.4926 24.0542L34.732 24.7885L34.7482 30.7687Z" fill="#888888"/>
<path d="M34.732 24.7884L33.4926 24.0541L34.6813 23.3542L35.9207 24.0906L34.732 24.7884Z" fill="#DBDBDB"/>
<defs>
<linearGradient id="paint0_linear_1870_36313" x1="42.8929" y1="34.6432" x2="43.5481" y2="23.4031" gradientUnits="userSpaceOnUse">
<stop stop-color="#71BDE3"/>
<stop offset="0.15" stop-color="#67B4DB"/>
<stop offset="0.4" stop-color="#4D9BC7"/>
<stop offset="0.72" stop-color="#2273A6"/>
<stop offset="0.93" stop-color="#03568F"/>
</linearGradient>
<linearGradient id="paint1_linear_1870_36313" x1="37.3123" y1="37.7143" x2="37.9675" y2="26.4741" gradientUnits="userSpaceOnUse">
<stop stop-color="#71BDE3"/>
<stop offset="0.15" stop-color="#67B4DB"/>
<stop offset="0.4" stop-color="#4D9BC7"/>
<stop offset="0.72" stop-color="#2273A6"/>
<stop offset="0.93" stop-color="#03568F"/>
</linearGradient>
<linearGradient id="paint2_linear_1870_36313" x1="54.0336" y1="28.4785" x2="54.6888" y2="17.2383" gradientUnits="userSpaceOnUse">
<stop stop-color="#71BDE3"/>
<stop offset="0.15" stop-color="#67B4DB"/>
<stop offset="0.4" stop-color="#4D9BC7"/>
<stop offset="0.72" stop-color="#2273A6"/>
<stop offset="0.93" stop-color="#03568F"/>
</linearGradient>
<linearGradient id="paint3_linear_1870_36313" x1="48.4531" y1="31.5497" x2="49.1083" y2="20.3096" gradientUnits="userSpaceOnUse">
<stop stop-color="#71BDE3"/>
<stop offset="0.15" stop-color="#67B4DB"/>
<stop offset="0.4" stop-color="#4D9BC7"/>
<stop offset="0.72" stop-color="#2273A6"/>
<stop offset="0.93" stop-color="#03568F"/>
</linearGradient>
<linearGradient id="paint4_linear_1870_36313" x1="37.3123" y1="55.7136" x2="37.9675" y2="44.4735" gradientUnits="userSpaceOnUse">
<stop stop-color="#71BDE3"/>
<stop offset="0.15" stop-color="#67B4DB"/>
<stop offset="0.4" stop-color="#4D9BC7"/>
<stop offset="0.72" stop-color="#2273A6"/>
<stop offset="0.93" stop-color="#03568F"/>
</linearGradient>
<linearGradient id="paint5_linear_1870_36313" x1="54.0336" y1="46.4757" x2="54.6888" y2="35.2356" gradientUnits="userSpaceOnUse">
<stop stop-color="#71BDE3"/>
<stop offset="0.15" stop-color="#67B4DB"/>
<stop offset="0.4" stop-color="#4D9BC7"/>
<stop offset="0.72" stop-color="#2273A6"/>
<stop offset="0.93" stop-color="#03568F"/>
</linearGradient>
<linearGradient id="paint6_linear_1870_36313" x1="21.5607" y1="34.6432" x2="20.9054" y2="23.4031" gradientUnits="userSpaceOnUse">
<stop stop-color="#71BDE3"/>
<stop offset="0.15" stop-color="#67B4DB"/>
<stop offset="0.4" stop-color="#4D9BC7"/>
<stop offset="0.72" stop-color="#2273A6"/>
<stop offset="0.93" stop-color="#03568F"/>
</linearGradient>
<linearGradient id="paint7_linear_1870_36313" x1="27.1392" y1="37.7143" x2="26.484" y2="26.4741" gradientUnits="userSpaceOnUse">
<stop stop-color="#71BDE3"/>
<stop offset="0.15" stop-color="#67B4DB"/>
<stop offset="0.4" stop-color="#4D9BC7"/>
<stop offset="0.72" stop-color="#2273A6"/>
<stop offset="0.93" stop-color="#03568F"/>
</linearGradient>
<linearGradient id="paint8_linear_1870_36313" x1="10.4199" y1="28.4785" x2="9.76469" y2="17.2383" gradientUnits="userSpaceOnUse">
<stop stop-color="#71BDE3"/>
<stop offset="0.15" stop-color="#67B4DB"/>
<stop offset="0.4" stop-color="#4D9BC7"/>
<stop offset="0.72" stop-color="#2273A6"/>
<stop offset="0.93" stop-color="#03568F"/>
</linearGradient>
<linearGradient id="paint9_linear_1870_36313" x1="16.0004" y1="31.5497" x2="15.3452" y2="20.3096" gradientUnits="userSpaceOnUse">
<stop stop-color="#71BDE3"/>
<stop offset="0.15" stop-color="#67B4DB"/>
<stop offset="0.4" stop-color="#4D9BC7"/>
<stop offset="0.72" stop-color="#2273A6"/>
<stop offset="0.93" stop-color="#03568F"/>
</linearGradient>
<linearGradient id="paint10_linear_1870_36313" x1="21.5607" y1="51.3645" x2="20.9054" y2="40.1243" gradientUnits="userSpaceOnUse">
<stop stop-color="#71BDE3"/>
<stop offset="0.15" stop-color="#67B4DB"/>
<stop offset="0.4" stop-color="#4D9BC7"/>
<stop offset="0.72" stop-color="#2273A6"/>
<stop offset="0.93" stop-color="#03568F"/>
</linearGradient>
<linearGradient id="paint11_linear_1870_36313" x1="27.1392" y1="54.4357" x2="26.484" y2="43.1956" gradientUnits="userSpaceOnUse">
<stop stop-color="#71BDE3"/>
<stop offset="0.15" stop-color="#67B4DB"/>
<stop offset="0.4" stop-color="#4D9BC7"/>
<stop offset="0.72" stop-color="#2273A6"/>
<stop offset="0.93" stop-color="#03568F"/>
</linearGradient>
<linearGradient id="paint12_linear_1870_36313" x1="10.4199" y1="45.1977" x2="9.76469" y2="33.9595" gradientUnits="userSpaceOnUse">
<stop stop-color="#71BDE3"/>
<stop offset="0.15" stop-color="#67B4DB"/>
<stop offset="0.4" stop-color="#4D9BC7"/>
<stop offset="0.72" stop-color="#2273A6"/>
<stop offset="0.93" stop-color="#03568F"/>
</linearGradient>
<linearGradient id="paint13_linear_1870_36313" x1="16.0004" y1="48.271" x2="15.3452" y2="37.0308" gradientUnits="userSpaceOnUse">
<stop stop-color="#71BDE3"/>
<stop offset="0.15" stop-color="#67B4DB"/>
<stop offset="0.4" stop-color="#4D9BC7"/>
<stop offset="0.72" stop-color="#2273A6"/>
<stop offset="0.93" stop-color="#03568F"/>
</linearGradient>
</defs>
</svg>
