<svg width="32" height="32" viewBox="0 0 32 32" fill="none" xmlns="http://www.w3.org/2000/svg">
<rect width="32" height="32" rx="16" fill="#2C75FB"/>
<path d="M16.4947 8.8886L16.4722 8.9411L14.2972 13.9886H12.1597C11.6497 13.9886 11.1622 14.0936 10.7197 14.2811L12.0322 11.1461L12.0622 11.0711L12.1147 10.9511C12.1297 10.9061 12.1447 10.8611 12.1672 10.8236C13.1497 8.5511 14.2597 8.0336 16.4947 8.8886Z" stroke="white" stroke-width="1.5" stroke-linecap="round" stroke-linejoin="round"/>
<path d="M20.5379 14.1387C20.2004 14.0337 19.8404 13.9887 19.4804 13.9887H14.2979L16.4729 8.94117L16.4954 8.88867C16.6079 8.92617 16.7129 8.97867 16.8254 9.02367L18.4829 9.72117C19.4054 10.1037 20.0504 10.5012 20.4404 10.9812C20.5154 11.0712 20.5754 11.1537 20.6279 11.2512C20.6954 11.3562 20.7479 11.4612 20.7779 11.5737C20.8079 11.6412 20.8304 11.7087 20.8454 11.7687C21.0479 12.3987 20.9279 13.1712 20.5379 14.1387Z" stroke="white" stroke-width="1.5" stroke-linecap="round" stroke-linejoin="round"/>
<path d="M23.1413 17.6483V19.1108C23.1413 19.2608 23.1338 19.4108 23.1263 19.5608C22.9838 22.1783 21.5213 23.4983 18.7463 23.4983H12.8963C12.7163 23.4983 12.5363 23.4833 12.3638 23.4608C9.97879 23.3033 8.70379 22.0283 8.54629 19.6433C8.52379 19.4708 8.50879 19.2908 8.50879 19.1108V17.6483C8.50879 16.1408 9.42379 14.8433 10.7288 14.2808C11.1788 14.0933 11.6588 13.9883 12.1688 13.9883H19.4888C19.8563 13.9883 20.2163 14.0408 20.5463 14.1383C22.0388 14.5958 23.1413 15.9908 23.1413 17.6483Z" stroke="white" stroke-width="1.5" stroke-linecap="round" stroke-linejoin="round"/>
<path d="M12.0325 11.1465L10.72 14.2815C9.415 14.844 8.5 16.1415 8.5 17.649V15.4515C8.5 13.3215 10.015 11.544 12.0325 11.1465Z" stroke="white" stroke-width="1.5" stroke-linecap="round" stroke-linejoin="round"/>
<path d="M23.1389 15.4517V17.6492C23.1389 15.9992 22.0439 14.5967 20.5439 14.1467C20.9339 13.1717 21.0464 12.4067 20.8589 11.7692C20.8439 11.7017 20.8214 11.6342 20.7914 11.5742C22.1864 12.2942 23.1389 13.7717 23.1389 15.4517Z" stroke="white" stroke-width="1.5" stroke-linecap="round" stroke-linejoin="round"/>
</svg>
