<svg width="40" height="41" viewBox="0 0 40 41" fill="none" xmlns="http://www.w3.org/2000/svg">
<rect y="0.5" width="40" height="40" rx="20" fill="#F0F5FF"/>
<path d="M11.842 25.5L11.856 16.568L12.01 15.7H13.424L13.41 25.5H11.842ZM9.728 18.57V17.1C9.94267 17.1093 10.1853 17.0487 10.456 16.918C10.736 16.778 11.0113 16.596 11.282 16.372C11.5527 16.148 11.7953 15.9193 12.01 15.686L13.018 16.736C12.6913 17.0813 12.3507 17.3987 11.996 17.688C11.6413 17.9773 11.2727 18.2013 10.89 18.36C10.5167 18.5187 10.1293 18.5887 9.728 18.57ZM17.2032 24.982L15.6212 24.254C15.6212 23.9647 15.6959 23.666 15.8452 23.358C15.9946 23.0407 16.2046 22.7233 16.4752 22.406C16.7552 22.0887 17.0819 21.79 17.4552 21.51L19.1632 20.278C19.3779 20.1287 19.5739 19.956 19.7512 19.76C19.9379 19.564 20.0872 19.3587 20.1992 19.144C20.3112 18.92 20.3672 18.7007 20.3672 18.486C20.3672 18.2153 20.2972 17.968 20.1572 17.744C20.0266 17.52 19.8352 17.3427 19.5832 17.212C19.3406 17.0813 19.0419 17.016 18.6872 17.016C18.3699 17.016 18.0852 17.0813 17.8332 17.212C17.5906 17.3333 17.3899 17.4967 17.2312 17.702C17.0726 17.9073 16.9606 18.1313 16.8952 18.374L15.2292 18.066C15.3226 17.618 15.5186 17.2027 15.8172 16.82C16.1252 16.428 16.5172 16.1153 16.9932 15.882C17.4786 15.6487 18.0292 15.532 18.6452 15.532C19.3359 15.532 19.9332 15.658 20.4372 15.91C20.9506 16.162 21.3426 16.512 21.6132 16.96C21.8932 17.3987 22.0332 17.9027 22.0332 18.472C22.0332 19.0507 21.8746 19.5733 21.5572 20.04C21.2492 20.4973 20.8152 20.936 20.2552 21.356L18.6872 22.518C18.4259 22.7047 18.1786 22.9193 17.9452 23.162C17.7212 23.3953 17.5392 23.6613 17.3992 23.96C17.2686 24.2587 17.2032 24.5993 17.2032 24.982ZM15.6212 25.5V24.254L16.8252 24.058H22.1592V25.5H15.6212ZM26.7273 25.668C26.1953 25.668 25.7099 25.5887 25.2713 25.43C24.8326 25.2713 24.4639 25.0473 24.1653 24.758C23.8666 24.4687 23.6519 24.142 23.5213 23.778L24.9773 23.232C25.0519 23.3627 25.1546 23.5073 25.2853 23.666C25.4159 23.8247 25.5886 23.9647 25.8033 24.086C26.0179 24.198 26.2933 24.254 26.6293 24.254C27.1613 24.254 27.5813 24.1047 27.8893 23.806C28.2066 23.498 28.3653 23.1107 28.3653 22.644C28.3653 22.308 28.2766 22.0187 28.0993 21.776C27.9313 21.5333 27.6653 21.3467 27.3013 21.216C26.9466 21.0853 26.4986 21.02 25.9573 21.02H25.5093V19.872H25.9153C26.4846 19.872 27.0119 19.9373 27.4973 20.068C27.9919 20.1987 28.4259 20.3947 28.7993 20.656C29.1819 20.908 29.4759 21.216 29.6813 21.58C29.8959 21.944 30.0033 22.3547 30.0033 22.812C30.0033 23.4 29.8493 23.9087 29.5413 24.338C29.2426 24.7673 28.8459 25.0987 28.3513 25.332C27.8566 25.556 27.3153 25.668 26.7273 25.668ZM25.5093 20.768V19.676H25.9573C26.6759 19.676 27.2219 19.5547 27.5953 19.312C27.9686 19.0693 28.1553 18.7287 28.1553 18.29C28.1553 18.038 28.0899 17.814 27.9593 17.618C27.8379 17.4127 27.6606 17.2493 27.4273 17.128C27.1939 17.0067 26.9186 16.946 26.6013 16.946C26.3959 16.946 26.1953 16.9787 25.9993 17.044C25.8033 17.1093 25.6213 17.212 25.4533 17.352C25.2853 17.492 25.1453 17.674 25.0333 17.898L23.6193 17.38C23.7593 16.988 23.9833 16.6567 24.2913 16.386C24.5993 16.106 24.9586 15.896 25.3693 15.756C25.7799 15.6067 26.2093 15.532 26.6573 15.532C27.2546 15.532 27.7866 15.644 28.2533 15.868C28.7293 16.092 29.1026 16.4047 29.3733 16.806C29.6533 17.198 29.7933 17.6507 29.7933 18.164C29.7933 18.5933 29.6859 18.9713 29.4713 19.298C29.2659 19.6247 28.9813 19.9 28.6173 20.124C28.2533 20.3387 27.8379 20.502 27.3713 20.614C26.9139 20.7167 26.4239 20.768 25.9013 20.768H25.5093Z" fill="#1D45D6"/>
</svg>
