<svg width="260" height="56" viewBox="0 0 260 56" fill="none" xmlns="http://www.w3.org/2000/svg">
<g clip-path="url(#clip0_2606_16742)">
<path d="M0.469971 54.6394V30.7373H12.4462V42.9868L1.98074 55.1969C1.86655 55.3299 1.71442 55.4248 1.54476 55.4688C1.3751 55.5128 1.19604 55.5039 1.0316 55.4432C0.867163 55.3825 0.725223 55.273 0.624831 55.1293C0.52444 54.9856 0.470402 54.8147 0.469971 54.6394Z" fill="#2C75FB"/>
<path d="M16.1775 42.4214V27.006H0.471558V16.3442H26.8361V42.4214H16.1775Z" fill="white"/>
<path d="M30.5675 42.4214V12.6128H0.469971V7.46491C0.472465 5.61792 1.2075 3.84734 2.51381 2.54162C3.82012 1.2359 5.59103 0.501662 7.43802 0.5L35.428 0.5C37.2758 0.500414 39.0479 1.2341 40.3553 2.53996C41.6626 3.84581 42.3983 5.61711 42.4008 7.46491V35.4565C42.3983 37.3032 41.6634 39.0735 40.3575 40.3792C39.0515 41.6849 37.281 42.4193 35.4343 42.4214H30.5675Z" fill="white"/>
<path d="M58.0282 12.6599C58.028 12.5812 58.0433 12.5033 58.0733 12.4306C58.1033 12.358 58.1474 12.2919 58.203 12.2363C58.2586 12.1807 58.3246 12.1366 58.3973 12.1066C58.47 12.0767 58.5479 12.0613 58.6265 12.0615H65.8239C69.706 12.0615 72.8909 15.2165 72.8909 19.0359C72.8909 22.9494 69.7044 26.1374 65.8537 26.1374H61.279V33.5546C61.2721 33.7115 61.2067 33.8601 61.0956 33.9711C60.9846 34.0822 60.836 34.1476 60.6791 34.1545H58.6265C58.5478 34.1545 58.4699 34.139 58.3972 34.1088C58.3245 34.0786 58.2585 34.0344 58.2029 33.9787C58.1473 33.923 58.1033 33.8568 58.0733 33.784C58.0433 33.7113 58.028 33.6333 58.0282 33.5546V12.6599ZM65.6338 23.0436C66.1624 23.0422 66.6855 22.9365 67.1731 22.7326C67.6608 22.5287 68.1034 22.2307 68.4757 21.8555C68.8479 21.4803 69.1426 21.0353 69.3426 20.5461C69.5427 20.0569 69.6443 19.533 69.6416 19.0044C69.6416 16.8577 67.812 15.2165 65.6338 15.2165H61.279V23.0436H65.6338Z" fill="white"/>
<path d="M75.0063 22.1297C75.0132 21.9729 75.0786 21.8242 75.1897 21.7132C75.3007 21.6022 75.4493 21.5367 75.6062 21.5298H76.5218C76.6458 21.5386 76.7641 21.5858 76.86 21.6649C76.956 21.744 77.025 21.851 77.0573 21.9711L77.4059 23.0437C77.8311 22.4667 78.388 21.9997 79.0302 21.6815C79.6724 21.3632 80.3814 21.203 81.098 21.2142C82.2963 21.2142 83.7489 21.5283 83.4019 22.381L82.6449 23.9279C82.6176 23.9995 82.5754 24.0644 82.521 24.1184C82.4667 24.1724 82.4015 24.2142 82.3298 24.2411C82.258 24.268 82.1814 24.2793 82.105 24.2743C82.0285 24.2693 81.954 24.2481 81.8864 24.2121C81.5462 24.0707 81.1822 23.9955 80.8138 23.9907C80.2478 23.986 79.69 24.1255 79.1929 24.3961C78.6959 24.6668 78.276 25.0596 77.9729 25.5376V33.5468C77.9729 34.0839 77.6258 34.1468 77.1201 34.1468H75.6062C75.4493 34.1398 75.3007 34.0744 75.1897 33.9634C75.0786 33.8523 75.0132 33.7037 75.0063 33.5468V22.1297Z" fill="white"/>
<path d="M90.9133 21.2141C94.1955 21.2141 96.7239 23.675 96.7239 27.053C96.7188 27.3383 96.6973 27.623 96.6595 27.9058C96.6486 28.0496 96.5844 28.1841 96.4796 28.2832C96.3748 28.3822 96.2368 28.4386 96.0926 28.4413H87.5038C87.5737 29.3574 87.9859 30.2136 88.6584 30.8395C89.3309 31.4654 90.2144 31.8153 91.1331 31.8193C92.2701 31.8193 93.3113 31.3136 93.9427 30.9037C94.3211 30.6823 94.5426 30.5567 94.7954 30.8723L95.678 32.0706C95.8994 32.3234 95.9921 32.5763 95.6152 32.8919C94.6996 33.6771 93.0585 34.4702 90.9447 34.4702C87.1254 34.4702 84.6001 31.4722 84.6001 27.8414C84.6001 24.2749 87.1254 21.2141 90.9133 21.2141ZM93.7856 26.4531C93.6898 24.9376 92.4272 23.6436 90.8819 23.6436C90.0929 23.6313 89.3274 23.9116 88.7329 24.4304C88.1384 24.9492 87.7571 25.6698 87.6625 26.4531H93.7856Z" fill="white"/>
<path d="M98.9916 32.5133L99.6528 31.2821C99.78 31.0293 100.124 30.935 100.438 31.1251C100.438 31.1251 101.826 31.9464 103.373 31.9464C104.315 31.9464 104.92 31.5679 104.92 30.8738C104.92 30.021 104.226 29.6174 102.489 28.8212C100.532 27.97 98.8911 26.7702 98.8911 24.6863C98.8911 23.1158 100.185 21.2156 103.216 21.2156C104.983 21.2156 106.308 21.7841 106.94 22.194C107.09 22.2873 107.2 22.4336 107.248 22.604C107.295 22.7744 107.277 22.9565 107.197 23.1142L106.632 24.1806C106.547 24.3132 106.418 24.4114 106.268 24.4577C106.117 24.504 105.955 24.4954 105.81 24.4334C105.81 24.4334 104.422 23.7707 103.224 23.7707C102.15 23.7707 101.811 24.2418 101.811 24.7129C101.811 25.5327 102.596 25.8798 103.83 26.4169C106.136 27.4267 108.028 28.4051 108.028 30.7717C108.028 32.7285 106.167 34.4654 103.357 34.4654C101.242 34.4654 99.8538 33.7069 99.1911 33.1713C99.0854 33.1029 99.0074 32.9993 98.9709 32.8789C98.9344 32.7584 98.9417 32.6289 98.9916 32.5133Z" fill="white"/>
<path d="M111.866 24.1492H110.541C110.382 24.1492 110.229 24.086 110.116 23.9735C110.004 23.861 109.941 23.7084 109.941 23.5493V22.1359C109.938 22.0564 109.952 21.9773 109.981 21.9033C110.01 21.8293 110.054 21.7621 110.111 21.7059C110.167 21.6497 110.234 21.6056 110.308 21.5764C110.382 21.5471 110.461 21.5334 110.541 21.536H111.866V18.0261C111.873 17.8692 111.938 17.7206 112.049 17.6096C112.161 17.4985 112.309 17.4331 112.466 17.4262L114.266 17.3948C114.42 17.4013 114.565 17.4676 114.671 17.5796C114.777 17.6917 114.835 17.8406 114.833 17.9947V21.5297H118.052C118.132 21.5269 118.211 21.5405 118.285 21.5696C118.359 21.5987 118.426 21.6428 118.483 21.6991C118.539 21.7554 118.583 21.8227 118.612 21.8967C118.641 21.9708 118.655 22.0501 118.652 22.1297V23.5431C118.652 23.6219 118.637 23.7 118.607 23.7729C118.577 23.8458 118.532 23.912 118.477 23.9677C118.421 24.0235 118.355 24.0676 118.282 24.0977C118.209 24.1278 118.131 24.1432 118.052 24.143H114.833V30.3917C114.833 31.4659 115.244 31.6481 115.844 31.6481C116.507 31.6481 117.391 31.2696 117.769 31.0796C118.179 30.8911 118.369 31.0796 118.495 31.3639L119.063 32.7521C119.22 33.1008 119.095 33.352 118.779 33.5106C118.465 33.6991 116.601 34.4529 115.086 34.4529C112.593 34.4529 111.866 32.9374 111.866 30.6964V24.1492Z" fill="white"/>
<path d="M121.619 14.5539C121.612 14.3129 121.653 14.073 121.741 13.8483C121.828 13.6235 121.959 13.4184 122.126 13.2449C122.294 13.0714 122.494 12.9331 122.716 12.8381C122.937 12.7431 123.176 12.6932 123.417 12.6914C123.659 12.6914 123.899 12.7392 124.123 12.832C124.348 12.9248 124.551 13.0608 124.723 13.2323C124.894 13.4038 125.03 13.6074 125.123 13.8315C125.216 14.0556 125.264 14.2957 125.264 14.5382C125.264 14.7808 125.216 15.0209 125.123 15.245C125.03 15.4691 124.894 15.6727 124.723 15.8442C124.551 16.0157 124.348 16.1517 124.123 16.2445C123.899 16.3373 123.659 16.3851 123.417 16.3851C123.178 16.3843 122.942 16.3361 122.722 16.2434C122.502 16.1507 122.303 16.0153 122.135 15.8449C121.968 15.6746 121.836 15.4728 121.748 15.2512C121.659 15.0296 121.615 14.7926 121.619 14.5539ZM121.966 22.1298C121.973 21.9729 122.038 21.8243 122.149 21.7132C122.26 21.6022 122.409 21.5368 122.566 21.5299H124.364C124.521 21.5368 124.669 21.6022 124.78 21.7132C124.891 21.8243 124.957 21.9729 124.964 22.1298V33.5547C124.957 33.7116 124.891 33.8602 124.78 33.9713C124.669 34.0823 124.521 34.1477 124.364 34.1546H122.566C122.409 34.1477 122.26 34.0823 122.149 33.9713C122.038 33.8602 121.973 33.7116 121.966 33.5547V22.1298Z" fill="white"/>
<path d="M130.044 29.7982C129.394 28.9112 129.051 27.8368 129.066 26.7374C129.066 23.8023 131.275 21.2142 134.495 21.2142H140.018C140.097 21.2116 140.176 21.2253 140.25 21.2545C140.324 21.2837 140.392 21.3278 140.448 21.3841C140.504 21.4403 140.548 21.5075 140.577 21.5815C140.607 21.6554 140.62 21.7346 140.618 21.8141V22.5993C140.618 22.8207 140.492 23.105 140.271 23.1364L138.535 23.6075C138.535 23.6075 139.892 24.6173 139.892 26.9856C139.892 29.6679 137.808 32.1303 134.526 32.1303C132.916 32.1303 132.032 31.6246 131.779 31.6246C131.559 31.6246 130.487 32.1617 130.487 33.1715C130.487 33.8971 131.054 34.4656 132.001 34.4656H136.294C139.039 34.4656 141.249 35.9481 141.249 38.6948C141.249 41.4713 138.724 43.9338 134.526 43.9338C130.075 43.9338 128.277 41.6613 128.277 39.6103C128.277 37.7164 129.823 36.8322 130.14 36.6438V36.548C129.477 36.3595 127.803 35.5068 127.803 33.3914C127.803 30.9666 130.044 29.7982 130.044 29.7982ZM134.495 41.3504C136.42 41.3504 138.092 40.372 138.092 38.8565C138.092 38.3524 137.778 37.0584 135.726 37.0584C134.81 37.0584 133.863 37.0584 132.948 37.1212C132.758 37.184 131.212 37.6897 131.212 39.1094C131.212 40.4034 132.569 41.3504 134.495 41.3504ZM137.208 26.8002C137.208 25.0963 136.136 23.8965 134.557 23.8965C132.948 23.8965 131.779 25.0963 131.779 26.8002C131.779 28.5042 132.948 29.7103 134.557 29.7103C136.136 29.7103 137.208 28.5042 137.208 26.8002Z" fill="white"/>
<path d="M148.98 21.2141C152.263 21.2141 154.791 23.675 154.791 27.053C154.786 27.3383 154.764 27.623 154.727 27.9058C154.715 28.0494 154.651 28.1838 154.546 28.2828C154.442 28.3817 154.304 28.4382 154.16 28.4413H145.579C145.649 29.3574 146.061 30.2136 146.733 30.8395C147.406 31.4654 148.289 31.8153 149.208 31.8193C150.345 31.8193 151.386 31.3136 152.018 30.9037C152.396 30.6823 152.617 30.5567 152.87 30.8723L153.745 32.0659C153.966 32.3187 154.059 32.5715 153.682 32.8872C152.767 33.6724 151.126 34.4655 149.012 34.4655C145.192 34.4655 142.667 31.4675 142.667 27.8367C142.667 24.2749 145.192 21.2141 148.98 21.2141ZM151.861 26.4531C151.765 24.9376 150.502 23.6436 148.957 23.6436C148.168 23.6309 147.402 23.911 146.807 24.4299C146.212 24.9487 145.83 25.6695 145.736 26.4531H151.861Z" fill="white"/>
<path d="M165.767 12.6599C165.767 12.501 165.831 12.3488 165.943 12.2367C166.055 12.1245 166.208 12.0615 166.367 12.0615H178.991C179.07 12.0613 179.148 12.0766 179.221 12.1066C179.294 12.1366 179.36 12.1806 179.416 12.2362C179.471 12.2918 179.516 12.3578 179.546 12.4305C179.576 12.5032 179.591 12.5812 179.591 12.6599V14.4282C179.591 14.5873 179.528 14.7399 179.416 14.8524C179.303 14.9649 179.151 15.0281 178.991 15.0281H169.019V22.3181H177.446C177.603 22.325 177.752 22.3904 177.863 22.5015C177.974 22.6125 178.039 22.7611 178.046 22.918V24.6533C178.039 24.8102 177.974 24.9588 177.863 25.0699C177.752 25.1809 177.603 25.2463 177.446 25.2532H169.019V33.5546C169.012 33.7115 168.947 33.8601 168.836 33.9711C168.725 34.0822 168.576 34.1476 168.419 34.1545H166.367C166.208 34.1541 166.055 34.0907 165.943 33.9783C165.831 33.8659 165.767 33.7136 165.767 33.5546V12.6599Z" fill="white"/>
<path d="M181.768 14.5539C181.762 14.3129 181.803 14.0729 181.891 13.8481C181.978 13.6233 182.109 13.4182 182.277 13.2448C182.444 13.0714 182.645 12.9331 182.867 12.8381C183.088 12.7431 183.327 12.6932 183.568 12.6914C183.81 12.6914 184.05 12.7392 184.274 12.832C184.499 12.9248 184.702 13.0608 184.874 13.2323C185.045 13.4038 185.181 13.6074 185.274 13.8315C185.367 14.0556 185.415 14.2957 185.415 14.5382C185.415 14.7808 185.367 15.0209 185.274 15.245C185.181 15.4691 185.045 15.6727 184.874 15.8442C184.702 16.0157 184.499 16.1517 184.274 16.2445C184.05 16.3373 183.81 16.3851 183.568 16.3851C183.329 16.3843 183.093 16.3361 182.873 16.2434C182.653 16.1507 182.453 16.0153 182.286 15.845C182.118 15.6747 181.986 15.473 181.898 15.2513C181.809 15.0297 181.765 14.7927 181.768 14.5539ZM182.115 22.1298C182.122 21.9729 182.187 21.8243 182.298 21.7132C182.409 21.6022 182.558 21.5368 182.715 21.5299H184.515C184.671 21.5371 184.82 21.6027 184.93 21.7137C185.041 21.8247 185.106 21.9731 185.113 22.1298V33.5547C185.106 33.7113 185.041 33.8597 184.93 33.9707C184.82 34.0817 184.671 34.1473 184.515 34.1546H182.715C182.558 34.1477 182.409 34.0823 182.298 33.9713C182.187 33.8602 182.122 33.7116 182.115 33.5547V22.1298Z" fill="white"/>
<path d="M189.215 22.1297C189.222 21.9728 189.287 21.8242 189.398 21.7132C189.51 21.6021 189.658 21.5367 189.815 21.5298H190.731C190.845 21.527 190.957 21.5629 191.048 21.6315C191.14 21.7002 191.205 21.7977 191.235 21.9082L191.615 22.9809C191.835 22.7296 193.499 21.2141 196.034 21.2141C199.885 21.2141 201.304 23.9278 201.304 27.2101V33.5546C201.297 33.7115 201.232 33.8601 201.121 33.9712C201.01 34.0822 200.861 34.1476 200.704 34.1546H198.906C198.827 34.1548 198.749 34.1394 198.676 34.1093C198.604 34.0792 198.537 34.0351 198.482 33.9793C198.426 33.9236 198.382 33.8573 198.352 33.7845C198.322 33.7116 198.306 33.6335 198.306 33.5546V27.0844C198.306 25.0648 197.328 23.9592 195.685 23.9592C193.697 23.9592 192.34 25.4119 192.183 25.8532V33.5484C192.183 33.9582 191.993 34.1483 191.456 34.1483H189.815C189.658 34.1414 189.51 34.0759 189.398 33.9649C189.287 33.8538 189.222 33.7052 189.215 33.5484V22.1297Z" fill="white"/>
<path d="M209.383 26.1688C210.227 26.1784 211.066 26.3058 211.875 26.5473C211.906 24.5591 211.528 23.7707 209.918 23.7707C208.467 23.7707 207.047 24.1492 206.383 24.3376C206.005 24.4334 205.783 24.1806 205.689 23.8335L205.436 22.6651C205.412 22.5905 205.404 22.5117 205.412 22.4337C205.42 22.3558 205.444 22.2803 205.483 22.2121C205.521 22.1439 205.574 22.0845 205.637 22.0376C205.699 21.9907 205.771 21.9573 205.848 21.9396C207.247 21.4519 208.72 21.2065 210.202 21.214C214.243 21.214 214.622 23.6749 214.622 26.8315V33.5546C214.615 33.7114 214.549 33.8601 214.438 33.9711C214.327 34.0821 214.179 34.1476 214.022 34.1545H213.138C212.853 34.1545 212.728 34.0273 212.601 33.7116L212.286 32.8604C211.778 33.3725 211.173 33.7785 210.507 34.0548C209.84 34.3312 209.126 34.4723 208.404 34.4701C206.036 34.4701 204.332 32.8604 204.332 30.2409C204.332 27.9371 206.163 26.1688 209.383 26.1688ZM209.004 32.2228C210.261 32.2228 211.465 31.2806 211.844 30.6524V28.6312C211.655 28.504 210.771 28.1255 209.634 28.1255C208.12 28.1255 207.077 28.9108 207.077 30.2095C207.077 31.345 207.836 32.2228 209.004 32.2228Z" fill="white"/>
<path d="M218.604 22.1297C218.611 21.9728 218.677 21.8242 218.788 21.7132C218.899 21.6021 219.047 21.5367 219.204 21.5298H220.12C220.234 21.5273 220.346 21.5633 220.437 21.6319C220.529 21.7005 220.594 21.7978 220.624 21.9082L221.002 22.9809C221.224 22.7296 222.896 21.2141 225.422 21.2141C229.272 21.2141 230.694 23.9278 230.694 27.2101V33.5546C230.687 33.7115 230.621 33.8601 230.51 33.9712C230.399 34.0822 230.251 34.1476 230.094 34.1546H228.294C228.135 34.1546 227.982 34.0913 227.87 33.9788C227.757 33.8663 227.694 33.7137 227.694 33.5546V27.0844C227.694 25.0648 226.716 23.9592 225.075 23.9592C223.086 23.9592 221.729 25.4119 221.571 25.8532V33.5484C221.571 33.9582 221.382 34.1483 220.845 34.1483H219.204C219.047 34.1414 218.899 34.0759 218.788 33.9649C218.677 33.8538 218.611 33.7052 218.604 33.5484V22.1297Z" fill="white"/>
<path d="M240.309 21.2141C242.235 21.2141 243.719 21.9993 244.886 23.4551C244.937 23.5206 244.975 23.5958 244.997 23.6763C245.019 23.7568 245.024 23.8408 245.012 23.9233C245 24.0059 244.972 24.0852 244.928 24.1564C244.885 24.2276 244.828 24.2893 244.76 24.3377L243.719 25.28C243.34 25.6271 243.119 25.3758 242.866 25.1544C242.298 24.5262 241.382 23.9545 240.341 23.9545C238.29 23.9545 236.68 25.6914 236.68 27.8367C236.68 30.0149 238.258 31.7502 240.309 31.7502C241.919 31.7502 242.582 30.9304 243.245 30.2991C243.529 30.0149 243.813 30.0149 244.097 30.2363L244.95 30.9304C245.264 31.1833 245.391 31.4989 245.17 31.8146C244.16 33.4227 242.456 34.4655 240.278 34.4655C239.411 34.4686 238.552 34.3001 237.75 33.9698C236.949 33.6394 236.22 33.1537 235.607 32.5406C234.994 31.9275 234.508 31.1991 234.178 30.3974C233.847 29.5958 233.679 28.7367 233.682 27.8696C233.681 24.1493 236.807 21.2141 240.309 21.2141Z" fill="white"/>
<path d="M253.722 21.2141C257.003 21.2141 259.533 23.675 259.533 27.053C259.527 27.3382 259.506 27.6229 259.469 27.9058C259.457 28.0497 259.393 28.1843 259.288 28.2833C259.183 28.3823 259.045 28.4386 258.9 28.4413H250.316C250.386 29.3563 250.797 30.2116 251.468 30.8374C252.14 31.4632 253.022 31.8137 253.939 31.8193C255.076 31.8193 256.117 31.3136 256.749 30.9037C257.127 30.6823 257.349 30.5567 257.6 30.8723L258.494 32.0659C258.715 32.3187 258.808 32.5715 258.431 32.8872C257.515 33.6724 255.874 34.4655 253.759 34.4655C249.941 34.4655 247.416 31.4675 247.416 27.8367C247.409 24.2749 249.935 21.2141 253.722 21.2141ZM256.595 26.4531C256.499 24.9376 255.236 23.6436 253.69 23.6436C252.901 23.6317 252.136 23.9122 251.542 24.4309C250.947 24.9497 250.566 25.67 250.472 26.4531H256.595Z" fill="white"/>
</g>
<defs>
<clipPath id="clip0_2606_16742">
<rect width="259.06" height="55" fill="white" transform="translate(0.469971 0.5)"/>
</clipPath>
</defs>
</svg>
