<svg width="118" height="124" viewBox="0 0 118 124" fill="none" xmlns="http://www.w3.org/2000/svg">
<g filter="url(#filter0_d_2405_19002)">
<rect width="64" height="64" rx="32" transform="matrix(-1 0 0 1 94 26)" fill="#1D45D6" shape-rendering="crispEdges"/>
<path d="M49.5 59.5625H74.5C75.3542 59.5625 76.0625 58.8542 76.0625 58C76.0625 57.1458 75.3542 56.4375 74.5 56.4375H49.5C48.6458 56.4375 47.9375 57.1458 47.9375 58C47.9375 58.8542 48.6458 59.5625 49.5 59.5625Z" fill="white"/>
<path d="M62 72.0625C62.8542 72.0625 63.5625 71.3542 63.5625 70.5V45.5C63.5625 44.6458 62.8542 43.9375 62 43.9375C61.1458 43.9375 60.4375 44.6458 60.4375 45.5V70.5C60.4375 71.3542 61.1458 72.0625 62 72.0625Z" fill="white"/>
</g>
<defs>
<filter id="filter0_d_2405_19002" x="0" y="0" width="124" height="124" filterUnits="userSpaceOnUse" color-interpolation-filters="sRGB">
<feFlood flood-opacity="0" result="BackgroundImageFix"/>
<feColorMatrix in="SourceAlpha" type="matrix" values="0 0 0 0 0 0 0 0 0 0 0 0 0 0 0 0 0 0 127 0" result="hardAlpha"/>
<feOffset dy="4"/>
<feGaussianBlur stdDeviation="15"/>
<feComposite in2="hardAlpha" operator="out"/>
<feColorMatrix type="matrix" values="0 0 0 0 0.25098 0 0 0 0 0.25098 0 0 0 0 0.25098 0 0 0 0.15 0"/>
<feBlend mode="normal" in2="BackgroundImageFix" result="effect1_dropShadow_2405_19002"/>
<feBlend mode="normal" in="SourceGraphic" in2="effect1_dropShadow_2405_19002" result="shape"/>
</filter>
</defs>
</svg>
